<mxfile host="65bd71144e" pages="2">
    <diagram id="-x-Mr_z5jqDARmnXLOUA" name="Page-1">
        <mxGraphModel dx="799" dy="603" grid="1" gridSize="10" guides="1" tooltips="1" connect="1" arrows="1" fold="1" page="1" pageScale="1" pageWidth="827" pageHeight="1169" math="0" shadow="0">
            <root>
                <mxCell id="0"/>
                <mxCell id="1" parent="0"/>
                <mxCell id="OPn5v87DceeQL0MjuVqU-2" value="" style="rounded=0;whiteSpace=wrap;html=1;" parent="1" vertex="1">
                    <mxGeometry x="30" y="10" width="780" height="480" as="geometry"/>
                </mxCell>
                <mxCell id="OPn5v87DceeQL0MjuVqU-3" value="Random Motivational Quote" style="rounded=1;whiteSpace=wrap;html=1;" parent="1" vertex="1">
                    <mxGeometry x="293.75" y="80" width="280" height="40" as="geometry"/>
                </mxCell>
                <mxCell id="OPn5v87DceeQL0MjuVqU-4" value="" style="rounded=0;whiteSpace=wrap;html=1;" parent="1" vertex="1">
                    <mxGeometry x="30" y="10" width="780" height="50" as="geometry"/>
                </mxCell>
                <mxCell id="OPn5v87DceeQL0MjuVqU-13" style="edgeStyle=orthogonalEdgeStyle;rounded=0;orthogonalLoop=1;jettySize=auto;html=1;entryX=1.001;entryY=0.644;entryDx=0;entryDy=0;entryPerimeter=0;" parent="1" source="OPn5v87DceeQL0MjuVqU-5" target="OPn5v87DceeQL0MjuVqU-6" edge="1">
                    <mxGeometry relative="1" as="geometry">
                        <Array as="points">
                            <mxPoint x="920" y="35"/>
                            <mxPoint x="920" y="859"/>
                        </Array>
                    </mxGeometry>
                </mxCell>
                <mxCell id="OPn5v87DceeQL0MjuVqU-5" value="Create" style="rounded=1;whiteSpace=wrap;html=1;" parent="1" vertex="1">
                    <mxGeometry x="710" y="15" width="90" height="40" as="geometry"/>
                </mxCell>
                <mxCell id="OPn5v87DceeQL0MjuVqU-6" value="" style="rounded=0;whiteSpace=wrap;html=1;" parent="1" vertex="1">
                    <mxGeometry x="30" y="550" width="780" height="480" as="geometry"/>
                </mxCell>
                <mxCell id="OPn5v87DceeQL0MjuVqU-7" value="" style="whiteSpace=wrap;html=1;aspect=fixed;" parent="1" vertex="1">
                    <mxGeometry x="230" y="585" width="410" height="410" as="geometry"/>
                </mxCell>
                <mxCell id="OPn5v87DceeQL0MjuVqU-8" value="Question for user to answer" style="text;html=1;strokeColor=none;fillColor=none;align=center;verticalAlign=middle;whiteSpace=wrap;rounded=0;" parent="1" vertex="1">
                    <mxGeometry x="405" y="600" width="60" height="30" as="geometry"/>
                </mxCell>
                <mxCell id="OPn5v87DceeQL0MjuVqU-9" value="&lt;h1&gt;&lt;span style=&quot;font-size: 12px ; font-weight: normal&quot;&gt;Lorem ipsum dolor sit amet, consectetur adipisicing elit, sed do eiusmod tempor incididunt ut labore et dolore magna aliqua.&lt;/span&gt;&lt;br&gt;&lt;/h1&gt;" style="text;html=1;strokeColor=none;fillColor=none;spacing=5;spacingTop=-20;whiteSpace=wrap;overflow=hidden;rounded=0;" parent="1" vertex="1">
                    <mxGeometry x="307.5" y="650" width="255" height="120" as="geometry"/>
                </mxCell>
                <mxCell id="OPn5v87DceeQL0MjuVqU-10" value="" style="rounded=0;whiteSpace=wrap;html=1;" parent="1" vertex="1">
                    <mxGeometry x="307.5" y="770" width="252.5" height="150" as="geometry"/>
                </mxCell>
                <mxCell id="OPn5v87DceeQL0MjuVqU-11" value="Submit" style="rounded=1;whiteSpace=wrap;html=1;" parent="1" vertex="1">
                    <mxGeometry x="393.75" y="940" width="80" height="35" as="geometry"/>
                </mxCell>
                <mxCell id="OPn5v87DceeQL0MjuVqU-14" value="X" style="text;html=1;strokeColor=none;fillColor=none;align=center;verticalAlign=middle;whiteSpace=wrap;rounded=0;" parent="1" vertex="1">
                    <mxGeometry x="580" y="590" width="60" height="30" as="geometry"/>
                </mxCell>
                <mxCell id="OPn5v87DceeQL0MjuVqU-15" value="" style="shape=callout;whiteSpace=wrap;html=1;perimeter=calloutPerimeter;" parent="1" vertex="1">
                    <mxGeometry x="630" y="350" width="180" height="120" as="geometry"/>
                </mxCell>
                <mxCell id="OPn5v87DceeQL0MjuVqU-16" value="" style="shape=callout;whiteSpace=wrap;html=1;perimeter=calloutPerimeter;" parent="1" vertex="1">
                    <mxGeometry x="100" y="320" width="180" height="120" as="geometry"/>
                </mxCell>
                <mxCell id="OPn5v87DceeQL0MjuVqU-17" value="" style="shape=callout;whiteSpace=wrap;html=1;perimeter=calloutPerimeter;" parent="1" vertex="1">
                    <mxGeometry x="465" y="190" width="180" height="120" as="geometry"/>
                </mxCell>
                <mxCell id="OPn5v87DceeQL0MjuVqU-18" value="" style="shape=callout;whiteSpace=wrap;html=1;perimeter=calloutPerimeter;" parent="1" vertex="1">
                    <mxGeometry x="127.5" y="150" width="180" height="120" as="geometry"/>
                </mxCell>
                <mxCell id="OPn5v87DceeQL0MjuVqU-19" value="" style="shape=callout;whiteSpace=wrap;html=1;perimeter=calloutPerimeter;" parent="1" vertex="1">
                    <mxGeometry x="350" y="340" width="180" height="120" as="geometry"/>
                </mxCell>
                <mxCell id="2" value="&lt;h1 style=&quot;font-size: 18px&quot;&gt;&lt;span style=&quot;font-size: 6px ; font-weight: normal&quot;&gt;Lorem ipsum dolor sit amet, consectetur adipisicing elit, sed do eiusmod tempor incididunt ut labore et dolore magna aliqua.&lt;/span&gt;&lt;br&gt;&lt;/h1&gt;" style="text;html=1;strokeColor=none;fillColor=none;spacing=5;spacingTop=-20;whiteSpace=wrap;overflow=hidden;rounded=0;" vertex="1" parent="1">
                    <mxGeometry x="100" y="320" width="150" height="80" as="geometry"/>
                </mxCell>
                <mxCell id="3" value="Text" style="text;html=1;strokeColor=none;fillColor=none;align=center;verticalAlign=middle;whiteSpace=wrap;rounded=0;" vertex="1" parent="1">
                    <mxGeometry x="240" y="392.5" width="40" height="15" as="geometry"/>
                </mxCell>
            </root>
        </mxGraphModel>
    </diagram>
    <diagram id="7zkhv_KvdzlBuS9f8F66" name="Page-2">
        <mxGraphModel dx="2066" dy="979" grid="1" gridSize="10" guides="1" tooltips="1" connect="1" arrows="1" fold="1" page="1" pageScale="1" pageWidth="827" pageHeight="1169" math="0" shadow="0">
            <root>
                <mxCell id="GP5HqRQ_AM-AhCz6VPAO-0"/>
                <mxCell id="GP5HqRQ_AM-AhCz6VPAO-1" parent="GP5HqRQ_AM-AhCz6VPAO-0"/>
                <mxCell id="GP5HqRQ_AM-AhCz6VPAO-9" value="FeelingsPosts" style="swimlane;fontStyle=0;childLayout=stackLayout;horizontal=1;startSize=26;horizontalStack=0;resizeParent=1;resizeParentMax=0;resizeLast=0;collapsible=1;marginBottom=0;align=center;fontSize=14;" vertex="1" parent="GP5HqRQ_AM-AhCz6VPAO-1">
                    <mxGeometry x="70" y="40" width="220" height="86" as="geometry"/>
                </mxCell>
                <mxCell id="GP5HqRQ_AM-AhCz6VPAO-10" value="ID = PRIMARY KEY" style="text;strokeColor=none;fillColor=none;spacingLeft=4;spacingRight=4;overflow=hidden;rotatable=0;points=[[0,0.5],[1,0.5]];portConstraint=eastwest;fontSize=12;" vertex="1" parent="GP5HqRQ_AM-AhCz6VPAO-9">
                    <mxGeometry y="26" width="220" height="30" as="geometry"/>
                </mxCell>
                <mxCell id="GP5HqRQ_AM-AhCz6VPAO-11" value="Content: VARCHAR(280 chars)" style="text;strokeColor=none;fillColor=none;spacingLeft=4;spacingRight=4;overflow=hidden;rotatable=0;points=[[0,0.5],[1,0.5]];portConstraint=eastwest;fontSize=12;" vertex="1" parent="GP5HqRQ_AM-AhCz6VPAO-9">
                    <mxGeometry y="56" width="220" height="30" as="geometry"/>
                </mxCell>
            </root>
        </mxGraphModel>
    </diagram>
</mxfile>